<?xml version="1.0" encoding="utf-8"?>
<!-- Generator: Adobe Illustrator 23.0.3, SVG Export Plug-In . SVG Version: 6.00 Build 0)  -->
<svg version="1.1" id="Layer_1" xmlns="http://www.w3.org/2000/svg" xmlns:xlink="http://www.w3.org/1999/xlink" x="0px" y="0px"
	 viewBox="0 0 800 167" style="enable-background:new 0 0 800 167;" xml:space="preserve">
<style type="text/css">
	.st0{fill:#FFE799;}
</style>
<path class="st0" d="M-41.5,147.5c70.1-78.7,127.5-94.8,167-95c48.4-0.2,57.8,23.6,177,54c94.9,24.2,129.9,19.5,151,1
	c18.6-16.3,18.4-36.2,38-42c26.8-8,41.4,24.9,78,32c44.1,8.6,63.6-31.4,144-64c39.5-16,101.3-41.1,129-18
	c32.5,27.1,24.5,125.7-27,181c-90.3,96.9-226.7-33.5-548,7c-116.4,14.7-245.8,50.4-293-13C-36.5,175.7-40.2,159.4-41.5,147.5z"/>
</svg>
