<?xml version="1.0" encoding="utf-8"?>
<!-- Generator: Adobe Illustrator 23.0.3, SVG Export Plug-In . SVG Version: 6.00 Build 0)  -->
<svg version="1.1" id="Layer_1" xmlns="http://www.w3.org/2000/svg" xmlns:xlink="http://www.w3.org/1999/xlink" x="0px" y="0px"
	 viewBox="0 0 800 136" style="enable-background:new 0 0 800 136;" xml:space="preserve">
<path d="M-23-14c15.3,31.5,49.5,65,87,65c24.3,0,34.1-14,60-9c20.8,4,33.9,16.8,42,24c4.8,4.3,75.5,66.5,128,66
	c65.1-0.7,84.7-97.9,148-93c28.2,2.2,28.7,21.8,63,29c54.5,11.5,82.3-31.9,141-48C748.5-8.2,811.4,83.3,860,51
	c45.2-30.1,47.2-147.1-8-212c-31.2-36.7-68.4-42.3-286-56c-280.4-17.7-343.3-16.2-399,14c-39.2,21.3-64.9,51.4-132,72
	c-26,8-49.9,11.9-63,33C-48.2-65.7-26.2-20.5-23-14z"/>
</svg>
